<svg xmlns="http://www.w3.org/2000/svg" xmlns:xlink="http://www.w3.org/1999/xlink" viewBox="0 0 1000 1000"><defs><style>.a,.aa,.ab,.ac,.ad,.ae,.af,.ag,.ah,.ai,.aj,.ak,.al,.am,.an,.ao,.ap,.aq,.ar,.as,.at,.au,.av,.aw,.ax,.ay,.b,.c,.d,.e,.f,.g,.h,.i,.j,.k,.l,.m,.n,.o,.p,.q,.r,.s,.t,.u,.v,.w,.x,.y,.z{fill-rule:evenodd;}.a{fill:url(#a);}.b{fill:url(#b);}.c{fill:url(#c);}.d{fill:url(#d);}.e{fill:url(#e);}.f{fill:url(#f);}.g{fill:url(#g);}.h{fill:url(#h);}.i{fill:url(#i);}.j{fill:url(#j);}.k{fill:url(#k);}.l{fill:url(#l);}.m{fill:url(#m);}.n{fill:url(#n);}.o{fill:url(#o);}.p{fill:url(#p);}.q{fill:url(#q);}.r{fill:url(#r);}.s{fill:url(#s);}.t{fill:url(#t);}.u{fill:url(#u);}.v{fill:url(#v);}.w{fill:url(#w);}.x{fill:url(#x);}.y{fill:url(#y);}.z{fill:url(#z);}.aa{fill:url(#aa);}.ab{fill:url(#ab);}.ac{fill:url(#ac);}.ad{fill:url(#ad);}.ae{fill:url(#ae);}.af{fill:url(#af);}.ag{fill:url(#ag);}.ah{fill:url(#ah);}.ai{fill:url(#ai);}.aj{fill:url(#aj);}.ak{fill:url(#ak);}.al{fill:url(#al);}.am{fill:url(#am);}.an{fill:url(#an);}.ao{fill:url(#ao);}.ap{fill:url(#ap);}.aq{fill:url(#aq);}.ar{fill:url(#ar);}.as{fill:url(#as);}.at{fill:url(#at);}.au{fill:url(#au);}.av{fill:url(#av);}.aw{fill:url(#aw);}.ax{fill:url(#ax);}.ay{fill:url(#ay);}</style><linearGradient id="a" x1="1717.27257" y1="-2696.90478" x2="1717.27257" y2="4457.87318" gradientTransform="translate(-72.90763 -1355.68269) rotate(45)" gradientUnits="userSpaceOnUse"><stop offset="0" stop-color="#8191b8"/><stop offset="0.04392" stop-color="#8a97bf"/><stop offset="0.11673" stop-color="#a4a8d2"/><stop offset="0.1224" stop-color="#a6aad4"/><stop offset="0.16716" stop-color="#b3b4dc"/><stop offset="0.22215" stop-color="#c9c6ea"/><stop offset="0.30573" stop-color="#ddd8f8"/><stop offset="0.3395" stop-color="#e7e0ff"/><stop offset="0.44538" stop-color="#e3ddfc"/><stop offset="0.63139" stop-color="#d1cdef"/><stop offset="0.73358" stop-color="#b3b4e1"/><stop offset="0.86861" stop-color="#919bcb"/><stop offset="1" stop-color="#7b8abb"/></linearGradient><linearGradient id="b" x1="1523.18008" y1="-3083.00603" x2="1523.18008" y2="-2379.47117" gradientTransform="translate(3272.90763 -176.01468) rotate(-135)" xlink:href="#a"/><linearGradient id="c" x1="2008.03557" y1="-2938.54111" x2="1490.71216" y2="-2378.89204" gradientTransform="translate(3272.90763 -176.01468) rotate(-135)" xlink:href="#a"/><linearGradient id="d" x1="2240.58094" y1="-2403.03581" x2="1437.75119" y2="-2395.91051" gradientTransform="translate(3272.90763 -176.01468) rotate(-135)" xlink:href="#a"/><linearGradient id="e" x1="2054.31122" y1="-1866.3721" x2="1442.45722" y2="-2413.44238" gradientTransform="translate(3272.90763 -176.01468) rotate(-135)" xlink:href="#a"/><linearGradient id="f" x1="1465.18052" y1="-1582.93441" x2="1436.66653" y2="-2514.39405" gradientTransform="translate(3272.90763 -176.01468) rotate(-135)" xlink:href="#a"/><linearGradient id="g" x1="773.538" y1="-1774.67054" x2="1516.60088" y2="-2538.89628" gradientTransform="translate(3272.90763 -176.01468) rotate(-135)" xlink:href="#a"/><linearGradient id="h" x1="615.65909" y1="-2483.12265" x2="1596.6937" y2="-2485.49803" gradientTransform="translate(3272.90763 -176.01468) rotate(-135)" xlink:href="#a"/><linearGradient id="i" x1="940.95527" y1="-3091.10382" x2="1540.81039" y2="-2404.86843" gradientTransform="translate(3272.90763 -176.01468) rotate(-135)" xlink:href="#a"/><linearGradient id="j" x1="1527.70506" y1="266.10196" x2="1527.70506" y2="969.63681" gradientTransform="matrix(-0.70711, -0.70711, -0.70711, 0.70711, 2188.82878, 908.06417)" xlink:href="#a"/><linearGradient id="k" x1="2017.4461" y1="399.23699" x2="1489.57113" y2="970.3009" gradientTransform="matrix(-0.70711, -0.70711, -0.70711, 0.70711, 2188.82878, 908.06417)" xlink:href="#a"/><linearGradient id="l" x1="2240.69498" y1="943.65386" x2="1437.72136" y2="950.78043" gradientTransform="matrix(-0.70711, -0.70711, -0.70711, 0.70711, 2188.82878, 908.06417)" xlink:href="#a"/><linearGradient id="m" x1="2041.76973" y1="1472.52103" x2="1442.14592" y2="936.38599" gradientTransform="matrix(-0.70711, -0.70711, -0.70711, 0.70711, 2188.82878, 908.06417)" xlink:href="#a"/><linearGradient id="n" x1="1463.02098" y1="1765.70978" x2="1434.5246" y2="834.82567" gradientTransform="matrix(-0.70711, -0.70711, -0.70711, 0.70711, 2188.82878, 908.06417)" xlink:href="#a"/><linearGradient id="o" x1="760.30175" y1="1589.24741" x2="1518.52047" y2="809.43419" gradientTransform="matrix(-0.70711, -0.70711, -0.70711, 0.70711, 2188.82878, 908.06417)" xlink:href="#a"/><linearGradient id="p" x1="615.62617" y1="869.93542" x2="1596.70875" y2="867.55993" gradientTransform="matrix(-0.70711, -0.70711, -0.70711, 0.70711, 2188.82878, 908.06417)" xlink:href="#a"/><linearGradient id="q" x1="953.09229" y1="269.87318" x2="1540.95706" y2="942.39158" gradientTransform="matrix(-0.70711, -0.70711, -0.70711, 0.70711, 2188.82878, 908.06417)" xlink:href="#a"/><linearGradient id="r" x1="-72.90758" y1="-4252.5397" x2="-72.90758" y2="2902.23826" gradientTransform="translate(1010.166 907.05894) rotate(-45)" xlink:href="#a"/><linearGradient id="s" x1="-27.88237" y1="-1292.84877" x2="-27.88237" y2="-589.31392" gradientTransform="translate(1010.166 907.05894) rotate(-45)" xlink:href="#a"/><linearGradient id="t" x1="461.85867" y1="-1159.71375" x2="-66.01629" y2="-588.64983" gradientTransform="translate(1010.166 907.05894) rotate(-45)" xlink:href="#a"/><linearGradient id="u" x1="685.10756" y1="-615.29688" x2="-117.86606" y2="-608.1703" gradientTransform="translate(1010.166 907.05894) rotate(-45)" xlink:href="#a"/><linearGradient id="v" x1="486.1823" y1="-86.4297" x2="-113.44151" y2="-622.56474" gradientTransform="translate(1010.166 907.05894) rotate(-45)" xlink:href="#a"/><linearGradient id="w" x1="-92.56645" y1="206.75904" x2="-121.06282" y2="-724.12506" gradientTransform="translate(1010.166 907.05894) rotate(-45)" xlink:href="#a"/><linearGradient id="x" x1="-795.28568" y1="30.29668" x2="-37.06696" y2="-749.51655" gradientTransform="translate(1010.166 907.05894) rotate(-45)" xlink:href="#a"/><linearGradient id="y" x1="-939.96125" y1="-689.01531" x2="41.12132" y2="-691.3908" gradientTransform="translate(1010.166 907.05894) rotate(-45)" xlink:href="#a"/><linearGradient id="z" x1="-602.49514" y1="-1289.07756" x2="-14.63037" y2="-616.55915" gradientTransform="translate(1010.166 907.05894) rotate(-45)" xlink:href="#a"/><linearGradient id="aa" x1="-32.40734" y1="-1524.05529" x2="-32.40734" y2="-820.52044" gradientTransform="matrix(0.70711, -0.70711, -0.70711, -0.70711, -73.91285, -177.0199)" xlink:href="#a"/><linearGradient id="ab" x1="452.44815" y1="-1379.59038" x2="-64.87526" y2="-819.94131" gradientTransform="matrix(0.70711, -0.70711, -0.70711, -0.70711, -73.91285, -177.0199)" xlink:href="#a"/><linearGradient id="ac" x1="684.99351" y1="-844.08508" x2="-117.83623" y2="-836.95978" gradientTransform="matrix(0.70711, -0.70711, -0.70711, -0.70711, -73.91285, -177.0199)" xlink:href="#a"/><linearGradient id="ad" x1="498.72379" y1="-307.42137" x2="-113.13021" y2="-854.49165" gradientTransform="matrix(0.70711, -0.70711, -0.70711, -0.70711, -73.91285, -177.0199)" xlink:href="#a"/><linearGradient id="ae" x1="-90.40691" y1="-23.98368" x2="-118.9209" y2="-955.44332" gradientTransform="matrix(0.70711, -0.70711, -0.70711, -0.70711, -73.91285, -177.0199)" xlink:href="#a"/><linearGradient id="af" x1="-782.04943" y1="-215.71981" x2="-38.98655" y2="-979.94555" gradientTransform="matrix(0.70711, -0.70711, -0.70711, -0.70711, -73.91285, -177.0199)" xlink:href="#a"/><linearGradient id="ag" x1="-939.92834" y1="-924.17191" x2="41.10628" y2="-926.54729" gradientTransform="matrix(0.70711, -0.70711, -0.70711, -0.70711, -73.91285, -177.0199)" xlink:href="#a"/><linearGradient id="ah" x1="-614.63216" y1="-1532.15309" x2="-14.77704" y2="-845.9177" gradientTransform="matrix(0.70711, -0.70711, -0.70711, -0.70711, -73.91285, -177.0199)" xlink:href="#a"/><linearGradient id="ai" x1="2865.84868" y1="-3233.66608" x2="2865.84868" y2="3849.35252" gradientTransform="translate(834.15132 -2365.84868) rotate(90)" xlink:href="#a"/><linearGradient id="aj" x1="2910.23428" y1="-303.6056" x2="2910.23428" y2="392.82688" gradientTransform="translate(834.15132 -2365.84868) rotate(90)" xlink:href="#a"/><linearGradient id="ak" x1="3396.49106" y1="-170.34336" x2="2874.09925" y2="394.78879" gradientTransform="translate(834.15132 -2365.84868) rotate(90)" xlink:href="#a"/><linearGradient id="al" x1="3631.42818" y1="368.33035" x2="2820.421" y2="375.52823" gradientTransform="translate(834.15132 -2365.84868) rotate(90)" xlink:href="#a"/><linearGradient id="am" x1="3432.25486" y1="900.9353" x2="2826.17413" y2="359.02699" gradientTransform="translate(834.15132 -2365.84868) rotate(90)" xlink:href="#a"/><linearGradient id="an" x1="2846.59338" y1="1181.11926" x2="2818.37597" y2="259.34781" gradientTransform="translate(834.15132 -2365.84868) rotate(90)" xlink:href="#a"/><linearGradient id="ao" x1="2149.40969" y1="1004.81222" x2="2899.94414" y2="232.90212" gradientTransform="translate(834.15132 -2365.84868) rotate(90)" xlink:href="#a"/><linearGradient id="ap" x1="1990.03432" y1="291.30893" x2="2980.99696" y2="288.90951" gradientTransform="translate(834.15132 -2365.84868) rotate(90)" xlink:href="#a"/><linearGradient id="aq" x1="2327.97285" y1="-309.56444" x2="2921.43012" y2="369.3518" gradientTransform="translate(834.15132 -2365.84868) rotate(90)" xlink:href="#a"/><linearGradient id="ar" x1="2910.23428" y1="-2500.33831" x2="2910.23428" y2="-1803.90583" gradientTransform="matrix(0, 1, 1, 0, 2367.27032, -2365.84868)" xlink:href="#a"/><linearGradient id="as" x1="3396.49106" y1="-2367.07607" x2="2874.09925" y2="-1801.94392" gradientTransform="matrix(0, 1, 1, 0, 2367.27032, -2365.84868)" xlink:href="#a"/><linearGradient id="at" x1="3631.42818" y1="-1828.40236" x2="2820.421" y2="-1821.20448" gradientTransform="matrix(0, 1, 1, 0, 2367.27032, -2365.84868)" xlink:href="#a"/><linearGradient id="au" x1="3432.25486" y1="-1295.79741" x2="2826.17413" y2="-1837.70571" gradientTransform="matrix(0, 1, 1, 0, 2367.27032, -2365.84868)" xlink:href="#a"/><linearGradient id="av" x1="2846.59338" y1="-1015.61345" x2="2818.37597" y2="-1937.3849" gradientTransform="matrix(0, 1, 1, 0, 2367.27032, -2365.84868)" xlink:href="#a"/><linearGradient id="aw" x1="2149.40969" y1="-1191.92049" x2="2899.94414" y2="-1963.83059" gradientTransform="matrix(0, 1, 1, 0, 2367.27032, -2365.84868)" xlink:href="#a"/><linearGradient id="ax" x1="1990.03432" y1="-1905.42378" x2="2980.99696" y2="-1907.8232" gradientTransform="matrix(0, 1, 1, 0, 2367.27032, -2365.84868)" xlink:href="#a"/><linearGradient id="ay" x1="2327.97285" y1="-2506.29715" x2="2921.43012" y2="-1827.38091" gradientTransform="matrix(0, 1, 1, 0, 2367.27032, -2365.84868)" xlink:href="#a"/></defs><path class="a" d="M990,500,714.78242,409.23377,846.45826,146.4729l-257.473,134.36758L500,0,411.01478,280.84048,153.54174,146.4729,285.21758,409.23377,10,500l275.21758,90.76623L153.54174,853.52678l257.473-134.36726L500,1000l88.98522-280.84048,257.473,134.36726L714.78242,590.76623ZM584.53551,708.15419l-.688,2.1488-21.66407,68.2841-1.32418,4.08777-.37113,1.31014-.42286,1.31014-3.54969,11.05746-.9,2.98715L502.33025,967.561,500,974.95037l-.053-.15737-.794-2.56781-1.58928-4.97858-6.09071-19.2327-2.96648-9.32832L416.15244,710.303l-.688-2.1488-.63623.36687h-.053l-.26509.15737-3.33632,1.72915L178.065,832.09314h-.053l-6.14373,3.19665-1.00736.52393.47717-.94326,1.16512-2.30585v-.05214l1.85437-3.616V828.844l120.87161-241.1174.21078-.41934v-.05245l.53019-1.04786-1.96041-.62915-.05172-.05214-255.832-84.32047-.15906-.05245-.68795-.262L34.52451,500l.21078-.05246h.053l7.41619-2.4629,54.34444-17.92288L133.0428,467.561l158.63663-52.353,3.44364-1.20522h.106l.741-.20982-.53019-1.10031-1.694-3.354L251.4251,324.96576l-5.40276-10.79551L174.3575,171.10351v-.05245l-3.49666-6.8651,2.4906,1.31014h.053l.52889.20982.106.05214.106.05246.053.05245,29.979,15.72163,8.42226,4.4022,4.44971,2.30585L413.61012,290.8501l.42415.262,1.43022.73375.31811-.73375v-.15737l.31682-1.15276v-.05246L497.56371,32.75339l1.58928-4.97858.5289-1.62456V26.0978L500,25.04963l.31811.99571v.05246l2.01214,6.34117,80.775,254.89973,1.06038,3.354v.05245l.05173.20951v.10491l.31811.78621,1.85437-.99571L822.20014,167.802l.106-.05246h.05173l3.49666-1.88652,3.28459-1.677v.10491l-.05431.05246-3.49537,6.97-.106.157L812.4537,197.41114l-3.38933,6.81264-.74227,1.51964-11.75857,23.37294-1.69531,3.45861-1.53626,3.03961-88.349,176.187-.953,1.99144,1.00606.31441h.106l3.49667,1.20555,87.44767,28.823,7.83905,2.56781.37113.1046,7.46792,2.46322,3.12553,1.04817L957.7955,497.48464l6.56789,2.20094,1.1121.31442-2.7544.8908-.688.262-.15906.05245-256.30791,84.53-.47717.15737h-.053l-1.00606.31441.42415.73344v.05245l.52889,1.15309L827.49687,832.51247l.053.1046.31682.68129.47717.52425.79528,1.99111-.95434-.47147-5.82691-3.09206-.10475-.05214-.21207-.20982-62.66067-32.596-7.09807-3.7209-1.32418-.6813-9.85118-5.13563L588.56107,710.25053l-3.28329-1.677h-.053Z"/><polygon class="b" points="163.877 841.342 497.542 500.872 290.713 589.649 163.877 841.342 163.877 841.342"/><polygon class="c" points="25.67 500.875 497.542 500.872 289.772 414.417 25.67 500.875 25.67 500.875"/><polygon class="d" points="163.878 160.403 497.542 500.872 410.542 289.827 163.878 160.403 163.878 160.403"/><polygon class="e" points="497.542 19.379 497.542 500.872 582.272 288.867 497.542 19.379 497.542 19.379"/><polygon class="f" points="831.203 160.405 497.542 500.872 704.371 412.101 831.203 160.405 831.203 160.405"/><polygon class="g" points="969.413 500.875 497.542 500.872 705.312 587.333 969.413 500.875 969.413 500.875"/><polygon class="h" points="831.206 841.342 497.542 500.872 584.542 711.922 831.206 841.342 831.206 841.342"/><polygon class="i" points="497.541 982.372 497.542 500.872 412.809 712.88 497.541 982.372 497.541 982.372"/><polygon class="j" points="831.203 160.405 497.539 500.875 584.541 289.828 831.203 160.405 831.203 160.405"/><polygon class="k" points="497.542 19.379 497.539 500.875 412.811 288.867 497.542 19.379 497.542 19.379"/><polygon class="l" points="163.875 160.406 497.539 500.875 290.713 412.101 163.875 160.406 163.875 160.406"/><polygon class="m" points="25.67 500.875 497.539 500.875 289.771 587.334 25.67 500.875 25.67 500.875"/><polygon class="n" points="163.877 841.342 497.539 500.875 410.542 711.923 163.877 841.342 163.877 841.342"/><polygon class="o" points="497.541 982.371 497.539 500.875 582.272 712.884 497.541 982.371 497.541 982.371"/><polygon class="p" points="831.203 841.345 497.539 500.875 704.37 589.65 831.203 841.345 831.203 841.345"/><polygon class="q" points="969.414 500.875 497.539 500.875 705.309 414.414 969.414 500.875 969.414 500.875"/><path class="r" d="M990,500,714.78242,409.23377,846.45826,146.4729l-257.473,134.36758L500,0,411.01478,280.84048,153.54174,146.4729,285.21758,409.23377,10,500l275.21758,90.76623L153.54174,853.52678l257.473-134.36726L500,1000l88.98522-280.84048,257.473,134.36726L714.78242,590.76623ZM584.53551,708.15419l-.688,2.1488-21.66407,68.2841-1.32418,4.08777-.37113,1.31014-.42286,1.31014-3.54969,11.05746-.9,2.98715L502.33025,967.561,500,974.95037l-.053-.15737-.794-2.56781-1.58928-4.97858-6.09071-19.2327-2.96648-9.32832L416.15244,710.303l-.688-2.1488-.63623.36687h-.053l-.26509.15737-3.33632,1.72915L178.065,832.09314h-.053l-6.14373,3.19665-1.00736.52393.47717-.94326,1.16512-2.30585v-.05214l1.85437-3.616V828.844l120.87161-241.1174.21078-.41934v-.05245l.53019-1.04786-1.96041-.62915-.05172-.05214-255.832-84.32047-.15906-.05245-.68795-.262L34.52451,500l.21078-.05246h.053l7.41619-2.4629,54.34444-17.92288L133.0428,467.561l158.63663-52.353,3.44364-1.20522h.106l.741-.20982-.53019-1.10031-1.694-3.354L251.4251,324.96576l-5.40276-10.79551L174.3575,171.10351v-.05245l-3.49666-6.8651,2.4906,1.31014h.053l.52889.20982.106.05214.106.05246.053.05245,29.979,15.72163,8.42226,4.4022,4.44971,2.30585L413.61012,290.8501l.42415.262,1.43022.73375.31811-.73375v-.15737l.31682-1.15276v-.05246L497.56371,32.75339l1.58928-4.97858.5289-1.62456V26.0978L500,25.04963l.31811.99571v.05246l2.01214,6.34117,80.775,254.89973,1.06038,3.354v.05245l.05173.20951v.10491l.31811.78621,1.85437-.99571L822.20014,167.802l.106-.05246h.05173l3.49666-1.88652,3.28459-1.677v.10491l-.05431.05246-3.49537,6.97-.106.157L812.4537,197.41114l-3.38933,6.81264-.74227,1.51964-11.75857,23.37294-1.69531,3.45861-1.53626,3.03961-88.349,176.187-.953,1.99144,1.00606.31441h.106l3.49667,1.20555,87.44767,28.823,7.83905,2.56781.37113.1046,7.46792,2.46322,3.12553,1.04817L957.7955,497.48464l6.56789,2.20094,1.1121.31442-2.7544.8908-.688.262-.15906.05245-256.30791,84.53-.47717.15737h-.053l-1.00606.31441.42415.73344v.05245l.52889,1.15309L827.49687,832.51247l.053.1046.31682.68129.47717.52425.79528,1.99111-.95434-.47147-5.82691-3.09206-.10475-.05214-.21207-.20982-62.66067-32.596-7.09807-3.7209-1.32418-.6813-9.85118-5.13563L588.56107,710.25053l-3.28329-1.677h-.053Z"/><polygon class="s" points="165.481 157.022 499.145 497.492 412.142 286.445 165.481 157.022 165.481 157.022"/><polygon class="t" points="499.142 15.995 499.145 497.492 583.872 285.484 499.142 15.995 499.142 15.995"/><polygon class="u" points="832.809 157.022 499.145 497.492 705.971 408.717 832.809 157.022 832.809 157.022"/><polygon class="v" points="971.014 497.492 499.145 497.492 706.913 583.95 971.014 497.492 971.014 497.492"/><polygon class="w" points="832.807 837.959 499.145 497.492 586.142 708.539 832.807 837.959 832.807 837.959"/><polygon class="x" points="499.142 978.988 499.145 497.492 414.412 709.5 499.142 978.988 499.142 978.988"/><polygon class="y" points="165.481 837.961 499.145 497.492 292.314 586.266 165.481 837.961 165.481 837.961"/><polygon class="z" points="27.27 497.491 499.145 497.492 291.375 411.031 27.27 497.491 27.27 497.491"/><polygon class="aa" points="832.807 837.959 499.142 497.489 705.971 586.266 832.807 837.959 832.807 837.959"/><polygon class="ab" points="971.014 497.492 499.142 497.489 706.912 411.033 971.014 497.492 971.014 497.492"/><polygon class="ac" points="832.806 157.019 499.142 497.489 586.142 286.444 832.806 157.019 832.806 157.019"/><polygon class="ad" points="499.142 15.995 499.142 497.489 414.412 285.483 499.142 15.995 499.142 15.995"/><polygon class="ae" points="165.481 157.022 499.142 497.489 292.313 408.717 165.481 157.022 165.481 157.022"/><polygon class="af" points="27.27 497.492 499.142 497.489 291.371 583.95 27.27 497.492 27.27 497.492"/><polygon class="ag" points="165.478 837.958 499.142 497.489 412.142 708.539 165.478 837.958 165.478 837.958"/><polygon class="ah" points="499.142 978.988 499.142 497.489 583.875 709.497 499.142 978.988 499.142 978.988"/><path class="ai" d="M990,500,714.78242,409.23377,846.45826,146.4729l-257.473,134.36758L500,0,411.01478,280.84048,153.54174,146.4729,285.21758,409.23377,10,500l275.21758,90.76623L153.54174,853.52678l257.473-134.36726L500,1000l88.98522-280.84048,257.473,134.36726L714.78242,590.76623ZM584.53551,708.15419l-.688,2.1488-21.66407,68.2841-1.32418,4.08777-.37113,1.31014-.42286,1.31014-3.54969,11.05746-.9,2.98715L502.33025,967.561,500,974.95037l-.053-.15737-.794-2.56781-1.58928-4.97858-6.09071-19.2327-2.96648-9.32832L416.15244,710.303l-.688-2.1488-.63623.36687h-.053l-.26509.15737-3.33632,1.72915L178.065,832.09314h-.053l-6.14373,3.19665-1.00736.52393.47717-.94326,1.16512-2.30585v-.05214l1.85437-3.616V828.844l120.87161-241.1174.21078-.41934v-.05245l.53019-1.04786-1.96041-.62915-.05172-.05214-255.832-84.32047-.15906-.05245-.68795-.262L34.52451,500l.21078-.05246h.053l7.41619-2.4629,54.34444-17.92288L133.0428,467.561l158.63663-52.353,3.44364-1.20522h.106l.741-.20982-.53019-1.10031-1.694-3.354L251.4251,324.96576l-5.40276-10.79551L174.3575,171.10351v-.05245l-3.49666-6.8651,2.4906,1.31014h.053l.52889.20982.106.05214.106.05246.053.05245,29.979,15.72163,8.42226,4.4022,4.44971,2.30585L413.61012,290.8501l.42415.262,1.43022.73375.31811-.73375v-.15737l.31682-1.15276v-.05246L497.56371,32.75339l1.58928-4.97858.5289-1.62456V26.0978L500,25.04963l.31811.99571v.05246l2.01214,6.34117,80.775,254.89973,1.06038,3.354v.05245l.05173.20951v.10491l.31811.78621,1.85437-.99571L822.20014,167.802l.106-.05246h.05173l3.49666-1.88652,3.28459-1.677v.10491l-.05431.05246-3.49537,6.97-.106.157L812.4537,197.41114l-3.38933,6.81264-.74227,1.51964-11.75857,23.37294-1.69531,3.45861-1.53626,3.03961-88.349,176.187-.953,1.99144,1.00606.31441h.106l3.49667,1.20555,87.44767,28.823,7.83905,2.56781.37113.1046,7.46792,2.46322,3.12553,1.04817L957.7955,497.48464l6.56789,2.20094,1.1121.31442-2.7544.8908-.688.262-.15906.05245-256.30791,84.53-.47717.15737h-.053l-1.00606.31441.42415.73344v.05245l.52889,1.15309L827.49687,832.51247l.053.1046.31682.68129.47717.52425.79528,1.99111-.95434-.47147-5.82691-3.09206-.10475-.05214-.21207-.20982-62.66067-32.596-7.09807-3.7209-1.32418-.6813-9.85118-5.13563L588.56107,710.25053l-3.28329-1.677h-.053Z"/><polygon class="aj" points="974.215 501.157 502.342 501.157 710.112 587.615 974.215 501.157 974.215 501.157"/><polygon class="ak" points="836.009 841.624 502.342 501.157 589.347 712.202 836.009 841.624 836.009 841.624"/><polygon class="al" points="502.342 982.653 502.342 501.157 417.612 713.161 502.342 982.653 502.342 982.653"/><polygon class="am" points="168.681 841.624 502.342 501.157 295.515 589.932 168.681 841.624 168.681 841.624"/><polygon class="an" points="30.474 501.157 502.342 501.157 294.576 414.694 30.474 501.157 30.474 501.157"/><polygon class="ao" points="168.681 160.685 502.342 501.157 415.342 290.107 168.681 160.685 168.681 160.685"/><polygon class="ap" points="502.342 19.66 502.342 501.157 587.076 289.149 502.342 19.66 502.342 19.66"/><polygon class="aq" points="836.009 160.685 502.342 501.157 709.173 412.381 836.009 160.685 836.009 160.685"/><polygon class="ar" points="30.474 501.157 502.347 501.157 294.577 587.615 30.474 501.157 30.474 501.157"/><polygon class="as" points="168.68 841.624 502.347 501.157 415.342 712.202 168.68 841.624 168.68 841.624"/><polygon class="at" points="502.347 982.653 502.347 501.157 587.077 713.161 502.347 982.653 502.347 982.653"/><polygon class="au" points="836.008 841.624 502.347 501.157 709.174 589.932 836.008 841.624 836.008 841.624"/><polygon class="av" points="974.215 501.157 502.347 501.157 710.113 414.694 974.215 501.157 974.215 501.157"/><polygon class="aw" points="836.008 160.685 502.347 501.157 589.347 290.107 836.008 160.685 836.008 160.685"/><polygon class="ax" points="502.347 19.66 502.347 501.157 417.613 289.149 502.347 19.66 502.347 19.66"/><polygon class="ay" points="168.68 160.685 502.347 501.157 295.516 412.381 168.68 160.685 168.68 160.685"/></svg>